# xmcd
#
# Track frame offsets:
# 150
# 66350
# 94402
# 144267
# 175832
# 207382
# 231840
#
# Disc length: 3542 seconds
#
#
# Revision: 0
# Processed by: cddbd v1.5.1PL0 Copyright (c) Steve Scherf et al.
# Submitted via: FreeRIP 2.92 
#
DISCID=630dd407
DTITLE=Chet Baker - Jazz and Blues
DYEAR=1900
DGENRE=
TTITLE0=The Squirrel
TTITLE1=Irresistible You
TTITLE2=Indiana/Donna Lee
TTITLE3=There´ll Never Be Another You
TTITLE4=Bernie´s Tune
TTITLE5=My Old Flame
TTITLE6=I´ll Remember April
EXTD=
EXTT0=
EXTT1=
EXTT2=
EXTT3=
EXTT4=
EXTT5=
EXTT6=
PLAYORDER=
